<?xml version="1.0" encoding="UTF-8" standalone="no"?>
<svg xmlns="http://www.w3.org/2000/svg" version="1.2" baseProfile="tiny" viewBox="0.00 0.00 475.00 475.00">
<g stroke-width="2.00" fill="none" stroke-linecap="butt">
<path stroke="#a69e8e" vector-effect="non-scaling-stroke" d="
  M 359.90 242.36
  Q 354.95 238.46 352.19 236.57
  Q 331.76 222.61 307.49 217.74"
/>
<path stroke="#ee846a" vector-effect="non-scaling-stroke" d="
  M 307.49 217.74
  Q 307.41 217.34 307.55 217.28"
/>
<path stroke="#ee846a" vector-effect="non-scaling-stroke" d="
  M 216.62 126.89
  Q 216.20 128.16 215.74 129.74
  Q 208.63 154.09 218.28 177.42
  Q 218.44 177.80 219.04 178.18"
/>
<path stroke="#ee846a" vector-effect="non-scaling-stroke" d="
  M 256.52 215.73
  L 257.71 218.46"
/>
<path stroke="#a69e8e" vector-effect="non-scaling-stroke" d="
  M 257.71 218.46
  Q 238.04 222.95 220.85 233.61
  Q 214.36 237.64 208.39 242.55"
/>
<path stroke="#ee846a" vector-effect="non-scaling-stroke" d="
  M 167.30 176.43
  Q 161.93 151.45 166.65 126.58"
/>
<path stroke="#9f80a6" vector-effect="non-scaling-stroke" d="
  M 307.49 217.74
  Q 282.59 212.92 257.71 218.46"
/>
<path stroke="#9f80a6" vector-effect="non-scaling-stroke" d="
  M 167.11 310.84
  Q 190.60 319.07 214.23 310.97
  Q 216.17 310.30 217.63 309.74"
/>
<path stroke="#9f80a6" vector-effect="non-scaling-stroke" d="
  M 257.36 269.50
  C 257.56 269.20 257.89 268.87 258.28 268.72
  Q 283.39 259.04 307.97 268.13"
/>
<path stroke="#9f80a6" vector-effect="non-scaling-stroke" d="
  M 217.30 360.65
  Q 216.19 360.59 215.25 360.78
  Q 192.30 365.48 169.25 361.27
  Q 168.62 361.15 167.33 361.29"
/>
</g>
<path fill="#f5a252" d="
  M 359.90 242.36
  Q 354.95 238.46 352.19 236.57
  Q 331.76 222.61 307.49 217.74
  Q 307.41 217.34 307.55 217.28
  C 341.22 205.17 361.32 170.68 353.82 135.16
  C 347.96 107.39 325.59 85.73 297.63 80.11
  Q 291.06 78.79 283.78 78.81
  Q 275.05 78.84 269.87 80.08
  Q 230.88 89.42 216.62 126.89
  Q 216.20 128.16 215.74 129.74
  Q 208.63 154.09 218.28 177.42
  Q 218.44 177.80 219.04 178.18
  Q 218.92 178.60 219.07 178.93
  Q 230.59 204.47 256.52 215.73
  L 257.71 218.46
  Q 238.04 222.95 220.85 233.61
  Q 214.36 237.64 208.39 242.55
  C 187.87 225.65 173.15 202.32 167.30 176.43
  Q 161.93 151.45 166.65 126.58
  C 176.71 76.69 215.89 39.59 265.82 31.59
  Q 275.99 29.96 285.33 30.16
  Q 322.13 30.95 351.64 51.12
  Q 379.10 69.89 392.72 100.13
  Q 409.85 138.17 400.08 178.53
  C 394.15 203.04 380.03 226.37 359.90 242.36
  Z"
/>
<path fill="#e66581" d="
  M 166.65 126.58
  Q 161.93 151.45 167.30 176.43
  C 140.34 186.37 121.25 210.67 119.75 239.50
  C 118.10 271.22 136.93 300.10 167.11 310.84
  Q 190.60 319.07 214.23 310.97
  Q 216.17 310.30 217.63 309.74
  Q 245.96 297.84 257.36 269.50
  C 257.56 269.20 257.89 268.87 258.28 268.72
  Q 283.39 259.04 307.97 268.13
  Q 299.05 308.43 269.42 333.92
  Q 246.82 353.36 217.78 360.40
  Q 217.16 360.55 217.30 360.65
  Q 216.19 360.59 215.25 360.78
  Q 192.30 365.48 169.25 361.27
  Q 168.62 361.15 167.33 361.29
  Q 167.24 360.95 166.93 360.88
  Q 119.41 350.45 92.19 311.03
  C 59.80 264.12 66.09 200.23 105.61 159.85
  Q 130.48 134.44 166.65 126.58
  Z"
/>
<path fill="#e66581" d="
  M 216.62 126.89
  C 262.48 137.56 296.78 171.57 307.55 217.28
  Q 307.41 217.34 307.49 217.74
  Q 282.59 212.92 257.71 218.46
  L 256.52 215.73
  Q 244.95 189.77 219.04 178.18
  Q 218.44 177.80 218.28 177.42
  Q 208.63 154.09 215.74 129.74
  Q 216.20 128.16 216.62 126.89
  Z"
/>
<path fill="#579aca" d="
  M 307.49 217.74
  Q 331.76 222.61 352.19 236.57
  Q 354.95 238.46 359.90 242.36
  Q 362.98 245.04 366.07 247.94
  Q 379.05 260.08 387.68 274.99
  Q 387.99 275.53 388.06 276.15
  A 2.52 2.51 -63.2 0 0 388.36 277.07
  C 411.17 317.92 408.05 367.32 381.15 405.33
  C 360.10 435.07 325.54 453.44 289.21 454.96
  C 231.01 457.39 180.00 418.06 167.33 361.29
  Q 168.62 361.15 169.25 361.27
  Q 192.30 365.48 215.25 360.78
  Q 216.19 360.59 217.30 360.65
  Q 226.80 384.44 247.88 396.92
  C 282.16 417.22 325.23 405.29 345.31 372.00
  C 357.97 351.01 358.49 324.71 347.67 303.32
  Q 335.28 278.80 307.97 268.13
  Q 283.39 259.04 258.28 268.72
  C 257.89 268.87 257.56 269.20 257.36 269.50
  Q 229.27 281.41 217.63 309.74
  Q 216.17 310.30 214.23 310.97
  Q 190.60 319.07 167.11 310.84
  Q 171.55 290.05 183.17 271.43
  Q 193.68 254.58 208.39 242.55
  Q 214.36 237.64 220.85 233.61
  Q 238.04 222.95 257.71 218.46
  Q 282.59 212.92 307.49 217.74
  Z"
/>
</svg>
