<svg width="16" height="16" viewBox="0 0 16 16" fill="inherit" xmlns="http://www.w3.org/2000/svg">
<path d="M7.82324 8.88626C7.92087 8.98389 8.07917 8.98389 8.1768 8.88626L11.927 5.13606C12.0246 5.03843 12.0246 4.88014 11.927 4.78251L11.22 4.07547C11.1223 3.97784 10.964 3.97784 10.8664 4.07547L8.00096 6.94092L5.1355 4.07545C5.03787 3.97782 4.87957 3.97782 4.78194 4.07545L4.07493 4.78246C3.9773 4.88009 3.9773 5.03838 4.07493 5.13602L7.0986 8.15968C7.10407 8.16643 7.10994 8.17295 7.11621 8.17922L7.82324 8.88626Z" fill="inherit"/>
<path d="M7.82324 12.8863C7.92087 12.9839 8.07917 12.9839 8.1768 12.8863L11.927 9.13606C12.0246 9.03843 12.0246 8.88014 11.927 8.78251L11.22 8.07547C11.1223 7.97784 10.964 7.97784 10.8664 8.07547L8.00096 10.9409L5.1355 8.07545C5.03787 7.97782 4.87957 7.97782 4.78194 8.07545L4.07493 8.78246C3.9773 8.88009 3.9773 9.03838 4.07493 9.13602L7.0986 12.1597C7.10407 12.1664 7.10994 12.1729 7.11621 12.1792L7.82324 12.8863Z" fill="inherit"/>
</svg>
