<svg width="30" height="30" viewBox="0 0 30 30" fill="none" xmlns="http://www.w3.org/2000/svg">
<path d="M20.9375 6.25C16.2775 6.25 12.5 10.0275 12.5 14.6875C12.5 19.3475 16.2775 23.125 20.9375 23.125C25.5975 23.125 29.375 19.3475 29.375 14.6875C29.375 10.0275 25.5975 6.25 20.9375 6.25ZM20.9375 18.75C18.6937 18.75 16.875 16.9312 16.875 14.6875C16.875 12.4437 18.6937 10.625 20.9375 10.625C23.1812 10.625 25 12.4437 25 14.6875C25 16.9312 23.1812 18.75 20.9375 18.75Z" fill="#FFB300"/>
<path d="M11.9625 17.5319V17.53C11.225 18.2825 10.1987 18.75 9.0625 18.75C6.81875 18.75 5 16.9312 5 14.6875C5 12.4437 6.81875 10.625 9.0625 10.625C10.2063 10.625 11.2381 11.0994 11.9763 11.86L14.32 8.095C12.8775 6.94312 11.0519 6.25 9.0625 6.25C4.4025 6.25 0.625 10.0275 0.625 14.6875C0.625 19.3475 4.4025 23.125 9.0625 23.125C11.04 23.125 12.8544 22.4394 14.2931 21.3006L11.9625 17.5319Z" fill="#FFB300"/>
<path d="M5 14.6875C5 13.5706 5.45125 12.5594 6.18062 11.825L3.14625 8.67627C1.59125 10.2063 0.625 12.3331 0.625 14.6875C0.625 17.0306 1.58125 19.15 3.12375 20.6788L6.2075 17.5763C5.4625 16.84 5 15.8181 5 14.6875Z" fill="#F57C00"/>
<path d="M23.8312 11.8381C24.5531 12.5712 25 13.5768 25 14.6875C25 16.9312 23.1812 18.75 20.9375 18.75C19.7962 18.75 18.7662 18.2781 18.0281 17.5199L14.9037 20.5793C16.4362 22.1481 18.5712 23.1249 20.9375 23.1249C25.5975 23.1249 29.375 19.3475 29.375 14.6875C29.375 12.385 28.4506 10.3006 26.9556 8.77808L23.8312 11.8381Z" fill="#F57C00"/>
</svg>
