<svg viewBox="0 0 10 10" fill="none" xmlns="http://www.w3.org/2000/svg">
<path d="M9.57432 0.0738339C9.47669 -0.0237974 9.3184 -0.0237975 9.22077 0.0738335L5.00085 4.29375L0.781795 0.0746876C0.684164 -0.0229435 0.525872 -0.0229434 0.428241 0.0746875L0.074688 0.428241C-0.022943 0.525872 -0.022943 0.684163 0.0746881 0.781794L4.29375 5.00085L0.0745661 9.22003C-0.0230648 9.31767 -0.0230652 9.47596 0.0745661 9.57359L0.428119 9.92714C0.525751 10.0248 0.684042 10.0248 0.781673 9.92714L5.00085 5.70796L9.21918 9.92629C9.31681 10.0239 9.4751 10.0239 9.57273 9.92629L9.92629 9.57273C10.0239 9.4751 10.0239 9.31681 9.92629 9.21918L5.70796 5.00085L9.92787 0.78094C10.0255 0.683309 10.0255 0.525018 9.92787 0.427387L9.57432 0.0738339Z" fill="#2B2C30"/>
</svg>
