<svg viewBox="0 0 16 16" fill="inherit" xmlns="http://www.w3.org/2000/svg">
<path fill-rule="evenodd" clip-rule="evenodd" d="M12.7784 13.781C14.4408 12.4054 15.5 10.3264 15.5 8C15.5 5.67362 14.4408 3.59464 12.7784 2.21898C11.4808 1.14526 9.81576 0.5 8 0.5C6.18424 0.5 4.51918 1.14526 3.22163 2.21898C1.55919 3.59464 0.5 5.67362 0.5 8C0.5 10.3264 1.55919 12.4054 3.22163 13.781C4.51918 14.8547 6.18424 15.5 8 15.5C9.81576 15.5 11.4808 14.8547 12.7784 13.781ZM11.7236 12.7051C13.1104 11.6061 14 9.90693 14 8C14 6.61347 13.5297 5.33678 12.7399 4.32077L4.32077 12.7399C5.33678 13.5297 6.61347 14 8 14C9.40677 14 10.7005 13.5159 11.7236 12.7051ZM3.26011 11.6792C2.47031 10.6632 2 9.38653 2 8C2 6.09307 2.8896 4.39391 4.27644 3.2949C5.29953 2.48414 6.59323 2 8 2C9.38653 2 10.6632 2.47031 11.6792 3.26011L3.26011 11.6792Z" fill="inherit"/>
</svg>
