<svg width="30" height="30" viewBox="0 0 30 30" fill="inherit" xmlns="http://www.w3.org/2000/svg">
<path d="M13.625 2.62509C7.875 3.25009 3.25 7.87509 2.625 13.5001C2 19.3751 5.375 24.6251 10.5 26.6251C10.875 26.7501 11.25 26.5001 11.25 26.0001V24.0001C11.25 24.0001 10.75 24.1251 10.125 24.1251C8.375 24.1251 7.625 22.6251 7.5 21.7501C7.375 21.2501 7.125 20.8751 6.75 20.5001C6.375 20.3751 6.25 20.3751 6.25 20.2501C6.25 20.0001 6.625 20.0001 6.75 20.0001C7.5 20.0001 8.125 20.8751 8.375 21.2501C9 22.2501 9.75 22.5001 10.125 22.5001C10.625 22.5001 11 22.3751 11.25 22.2501C11.375 21.3751 11.75 20.5001 12.5 20.0001C9.625 19.3751 7.5 17.7501 7.5 15.0001C7.5 13.6251 8.125 12.2501 9 11.2501C8.875 11.0001 8.75 10.3751 8.75 9.50009C8.75 9.00009 8.75 8.37509 9 7.87509C9 7.62509 9.25 7.50009 9.375 7.50009H9.5C10.125 7.62509 11.375 8.00009 12.5 9.12509C13.25 8.87509 14.125 8.75009 15 8.75009C15.875 8.75009 16.75 8.87509 17.5 9.12509C18.625 8.00009 20 7.62509 20.625 7.50009H20.75C21 7.50009 21.125 7.62509 21.25 7.87509C21.25 8.37509 21.25 9.00009 21.25 9.50009C21.25 10.5001 21.125 11.0001 21 11.2501C21.875 12.2501 22.5 13.5001 22.5 15.0001C22.5 17.7501 20.375 19.3751 17.5 20.0001C18.25 20.6251 18.75 21.7501 18.75 22.8751V26.1251C18.75 26.5001 19.125 26.8751 19.625 26.7501C24.25 24.8751 27.5 20.3751 27.5 15.1251C27.5 7.62509 21.125 1.75009 13.625 2.62509Z" fill="inherit"/>
</svg>
