<svg width="16" height="16" viewBox="0 0 16 16" fill="inherit" xmlns="http://www.w3.org/2000/svg">
<path d="M2.74493 8.31485L2.03782 9.02195C0.670987 10.3888 0.670987 12.6049 2.03782 13.9717C3.40466 15.3385 5.62073 15.3385 6.98757 13.9717L9.816 11.1433C11.1828 9.77644 11.1828 7.56036 9.816 6.19353L8.75534 7.25419C9.53638 8.03523 9.53638 9.30156 8.75534 10.0826L5.92691 12.911C5.14586 13.6921 3.87953 13.6921 3.09848 12.911C2.31743 12.13 2.31743 10.8637 3.09848 10.0826L3.80559 9.37551L2.74493 8.31485Z"/>
<path d="M3.80558 8.31485C4.09847 8.60775 4.09848 9.08261 3.80559 9.37551C3.5127 9.6684 3.03781 9.66841 2.74492 9.37551C2.45203 9.08262 2.45204 8.60774 2.74493 8.31485C3.03782 8.02195 3.51269 8.02196 3.80558 8.31485Z"/>
<path d="M9.816 6.19353C10.1089 6.48642 10.1089 6.96128 9.81599 7.25418C9.52309 7.54707 9.04823 7.54708 8.75534 7.25419C8.46244 6.96129 8.46243 6.48641 8.75533 6.19352C9.04822 5.90062 9.5231 5.90063 9.816 6.19353Z"/>
<path d="M13.2659 7.69321L13.973 6.9861C15.3398 5.61927 15.3398 3.40319 13.973 2.03636C12.6061 0.669522 10.39 0.669522 9.02321 2.03636L6.19479 4.86478C4.82795 6.23162 4.82795 8.4477 6.19479 9.81453L7.25545 8.75387C6.4744 7.97282 6.4744 6.70649 7.25545 5.92544L10.0839 3.09702C10.8649 2.31597 12.1313 2.31597 12.9123 3.09702C13.6934 3.87807 13.6934 5.1444 12.9123 5.92544L12.2052 6.63255L13.2659 7.69321Z"/>
<path d="M12.2048 7.69366C11.9119 7.40077 11.9123 6.92544 12.2052 6.63255C12.4981 6.33966 12.9726 6.34011 13.2655 6.633C13.5584 6.92589 13.5587 7.40032 13.2659 7.69321C12.973 7.9861 12.4977 7.98655 12.2048 7.69366Z"/>
<path d="M6.19479 9.81453C5.90189 9.52164 5.90154 9.04723 6.19443 8.75434C6.48732 8.46145 6.96255 8.46098 7.25545 8.75387C7.54834 9.04676 7.54798 9.52211 7.25509 9.815C6.9622 10.1079 6.48768 10.1074 6.19479 9.81453Z"/>
</svg>
