<svg width="30" height="30" viewBox="0 0 30 30" fill="none" xmlns="http://www.w3.org/2000/svg">
<path d="M15.0293 3.12505C14.0575 3.12817 13.3837 3.2138 12.5693 3.35442C10.1643 3.77317 9.72622 4.65255 9.72622 6.27317V8.75005H15.3512V10H9.51247H6.79372C5.14622 10 3.70434 10.7763 3.24747 12.6369C2.73122 14.7725 2.70809 16.11 3.24747 18.34C3.65684 20.0032 4.55872 21.25 6.20684 21.25H8.47684V18.06C8.47684 16.2063 10.1556 14.375 12.0793 14.375H16.6018C18.1787 14.375 19.7268 13.2113 19.7268 11.6394V6.27317C19.7268 4.7488 18.6275 3.6088 17.0906 3.35317C17.1287 3.34942 15.9931 3.1213 15.0293 3.12505ZM11.9143 5.62505C12.4275 5.62505 12.8518 6.04817 12.8518 6.5638C12.8518 7.08442 12.4275 7.50005 11.9143 7.50005C11.3912 7.50005 10.9768 7.08505 10.9768 6.5638C10.9768 6.05005 11.3912 5.62505 11.9143 5.62505Z" fill="#0277BD"/>
<path d="M14.4237 26.875C15.3956 26.8719 16.0693 26.7862 16.8837 26.6456C19.2887 26.2269 19.7268 25.3475 19.7268 23.7269V21.25H14.1018V20H19.9412H22.6599C24.3074 20 25.7493 19.2238 26.2062 17.3631C26.7224 15.2275 26.7456 13.89 26.2062 11.66C25.7962 9.99688 24.8943 8.75 23.2462 8.75H20.9762V11.94C20.9762 13.7938 19.2974 15.625 17.3737 15.625H12.8512C11.2743 15.625 9.7262 16.7888 9.7262 18.3606V23.7269C9.7262 25.2513 10.8256 26.3912 12.3624 26.6469C12.3243 26.6506 13.4599 26.8788 14.4237 26.875ZM17.5393 24.375C17.0262 24.375 16.6018 23.9519 16.6018 23.4363C16.6018 22.9156 17.0262 22.5 17.5393 22.5C18.0624 22.5 18.4768 22.915 18.4768 23.4363C18.4768 23.95 18.0618 24.375 17.5393 24.375Z" fill="#FFC107"/>
</svg>
