<svg width="13" height="13" viewBox="0 0 13 13" fill="none" xmlns="http://www.w3.org/2000/svg">
<path fill-rule="evenodd" clip-rule="evenodd" d="M8.46549 9.52606C7.63582 10.1382 6.61016 10.5 5.5 10.5C2.73858 10.5 0.5 8.26142 0.5 5.5C0.5 2.73858 2.73858 0.5 5.5 0.5C8.26142 0.5 10.5 2.73858 10.5 5.5C10.5 6.61015 10.1382 7.6358 9.52608 8.46547L12.9268 11.8662C13.0244 11.9638 13.0244 12.1221 12.9268 12.2197L12.2197 12.9267C12.1221 13.0244 11.9638 13.0244 11.8662 12.9267L8.46549 9.52606ZM9.03125 5.51562C9.03125 7.45725 7.45725 9.03125 5.51563 9.03125C3.574 9.03125 2 7.45725 2 5.51562C2 3.574 3.574 2 5.51563 2C7.45725 2 9.03125 3.574 9.03125 5.51562Z" fill="#2B2C30"/>
</svg>
