<svg viewBox="0 0 16 16" fill="inherit" xmlns="http://www.w3.org/2000/svg">
<path d="M6.2475 14.4569L6.81031 13.5H5.51062C5.37 13.5 5.25656 13.3837 5.26062 13.2431C5.31125 11.4816 5.54625 10.2244 5.97531 9.41469C6.40125 8.61094 7.02562 8.25219 8 8.25219C8.67687 8.25219 9.18469 8.42531 9.57469 8.80062L10.0453 8.00031C10.1481 7.82563 10.2778 7.67437 10.4275 7.55062C10.4069 7.53344 10.3859 7.51656 10.365 7.5C10.7566 7.19063 11.0856 6.78656 11.35 6.2875C11.8294 5.38219 12.1088 4.15906 12.2081 2.5H12.7497C12.8878 2.5 12.9997 2.38813 12.9997 2.25V1.25C12.9997 1.11187 12.8878 1 12.7497 1H3.25C3.11187 1 3 1.11187 3 1.25V2.25C3 2.38813 3.11187 2.5 3.25 2.5H3.79156C3.89094 4.15906 4.17031 5.38219 4.64969 6.2875C4.91406 6.78656 5.24312 7.19094 5.63469 7.5C5.24312 7.80937 4.91406 8.21344 4.64969 8.7125C4.07875 9.79062 3.79156 11.3203 3.75437 13.5H3.25C3.11187 13.5 3 13.6119 3 13.75V14.75C3 14.8881 3.11187 15 3.25 15H6.04437C6.07969 14.8113 6.1475 14.6272 6.2475 14.4569ZM5.31437 2.77094C5.3025 2.625 5.41719 2.5 5.56344 2.5H10.4362C10.5825 2.5 10.6972 2.62531 10.6853 2.77094C10.5847 4.01219 10.3659 4.94031 10.0244 5.58531C9.59844 6.38937 8.97406 6.74781 7.99969 6.74781C7.02531 6.74781 6.40062 6.38937 5.975 5.58531C5.63344 4.94031 5.41469 4.01219 5.31406 2.77094H5.31437Z" fill="inherit"/>
<path d="M15.8906 14.9641L12.0928 8.5075C11.8269 8.05562 11.1734 8.05562 10.9075 8.5075L7.10969 14.9641C6.84 15.4225 7.17063 16 7.70219 16H15.2981C15.83 16 16.1603 15.4222 15.8906 14.9641ZM11.0013 9.99687H11.9906V12.9975H11.0013V9.99687ZM11.5 15.195C11.1259 15.195 10.8228 14.8919 10.8228 14.5178C10.8228 14.1438 11.1259 13.8406 11.5 13.8406C11.8741 13.8406 12.1772 14.1438 12.1772 14.5178C12.1772 14.8919 11.8741 15.195 11.5 15.195Z" fill="inherit"/>
</svg>
